<?xml version="1.0" standalone="no"?><!DOCTYPE svg PUBLIC "-//W3C//DTD SVG 1.1//EN" "http://www.w3.org/Graphics/SVG/1.1/DTD/svg11.dtd"><svg t="1700051540429" class="icon" viewBox="0 0 1024 1024" version="1.1" xmlns="http://www.w3.org/2000/svg" p-id="12130" xmlns:xlink="http://www.w3.org/1999/xlink" width="200" height="200"><path d="M650.666667 262.997333L128 785.664V896h110.336l522.666667-522.666667-110.336-110.336zM710.997333 202.666667l110.336 110.336L878.336 256 768 145.664 710.997333 202.666667zM512 281.002667L737.834667 55.168a42.666667 42.666667 0 0 1 60.330666 0l170.666667 170.666667a42.666667 42.666667 0 0 1 0 60.330666L742.997333 512l225.834667 225.834667a42.666667 42.666667 0 0 1 0 60.330666l-170.666667 170.666667a42.666667 42.666667 0 0 1-60.330666 0L512 742.997333 286.165333 968.832A42.666667 42.666667 0 0 1 256 981.333333H85.333333a42.666667 42.666667 0 0 1-42.666666-42.666666v-170.666667a42.666667 42.666667 0 0 1 12.501333-30.165333L281.002667 512 55.168 286.165333a42.666667 42.666667 0 0 1 0-60.330666l170.666667-170.666667a42.666667 42.666667 0 0 1 60.330666 0L512 281.002667zM451.669333 341.333333L256 145.664 145.664 256 341.333333 451.669333 451.669333 341.333333zM682.666667 572.330667L572.330667 682.666667 768 878.336 878.336 768 682.666667 572.330667z" fill="" p-id="12131"></path></svg>