<?xml version="1.0" standalone="no"?><!DOCTYPE svg PUBLIC "-//W3C//DTD SVG 1.1//EN" "http://www.w3.org/Graphics/SVG/1.1/DTD/svg11.dtd"><svg t="1700051461303" class="icon" viewBox="0 0 1024 1024" version="1.1" xmlns="http://www.w3.org/2000/svg" p-id="10266" xmlns:xlink="http://www.w3.org/1999/xlink" width="200" height="200"><path d="M964.693333 300.8L725.333333 59.306667a42.666667 42.666667 0 0 0-30.293333-12.373334 42.666667 42.666667 0 0 0-29.866667 12.373334L59.306667 663.04a42.666667 42.666667 0 0 0 0 60.16l241.493333 241.493333a42.666667 42.666667 0 0 0 30.293333 12.373334 42.666667 42.666667 0 0 0 29.866667-12.373334l120.746667-120.746666 362.24-362.24 120.746666-120.746667a42.666667 42.666667 0 0 0 0-60.16z m-151.04 90.453333l-30.293333-30.293333a42.666667 42.666667 0 0 0-60.16 0 42.666667 42.666667 0 0 0 0 60.586667l30.293333 30.293333L692.906667 512l-90.453334-90.453333a42.666667 42.666667 0 0 0-60.16 60.16l90.453334 90.453333-60.586667 60.586667-29.866667-30.293334a42.666667 42.666667 0 1 0-60.586666 60.586667l30.293333 29.866667-60.16 60.586666-90.88-90.453333a42.666667 42.666667 0 0 0-60.16 0 42.666667 42.666667 0 0 0 0 60.16l90.453333 90.453333-60.16 60.586667-181.333333-181.333333L692.906667 149.76l181.333333 181.333333z" p-id="10267"></path></svg>