<?xml version="1.0" standalone="no"?><!DOCTYPE svg PUBLIC "-//W3C//DTD SVG 1.1//EN" "http://www.w3.org/Graphics/SVG/1.1/DTD/svg11.dtd"><svg t="1700049284804" class="icon" viewBox="0 0 1024 1024" version="1.1" xmlns="http://www.w3.org/2000/svg" p-id="4397" xmlns:xlink="http://www.w3.org/1999/xlink" width="200" height="200"><path d="M512 96c229.76 0 416 186.24 416 416a422.848 422.848 0 0 1-0.96 28.352l0.416-6.944a419.104 419.104 0 0 1-3.456 36.608l-1.6 10.432a414.208 414.208 0 0 1-36.096 113.312l1.12-2.304a414.4 414.4 0 0 1-5.664 11.36l0.48-0.928a414.784 414.784 0 0 1-31.264 51.296l0.224-0.32a417.376 417.376 0 0 1-61.696 69.056l0.64-0.608a418.4 418.4 0 0 1-92.896 63.264l-2.304 1.152a414.176 414.176 0 0 1-173.12 42.144L512 928C282.24 928 96 741.76 96 512S282.24 96 512 96z m0 32C299.936 128 128 299.936 128 512s171.936 384 384 384v-192l7.2-0.128a192 192 0 0 0 0-383.744L512 320V128z m0 192v384a192 192 0 1 1 0-384z" fill="#F0F0F0" p-id="4398"></path></svg>