<?xml version="1.0" standalone="no"?>
<!DOCTYPE svg PUBLIC "-//W3C//DTD SVG 1.1//EN" "http://www.w3.org/Graphics/SVG/1.1/DTD/svg11.dtd"><svg t="1700049572146"
    class="icon" viewBox="0 0 1024 1024" version="1.1" xmlns="http://www.w3.org/2000/svg" p-id="1774"
    xmlns:xlink="http://www.w3.org/1999/xlink" width="200" height="200">
    <path
        d="M307.2 413.866667V298.666667c0-72.533333 55.466667-128 128-128h170.666667V85.333333h-170.666667c-119.466667 0-213.333333 93.866667-213.333333 213.333334v115.2L145.066667 332.8 85.333333 392.533333l179.2 179.2 179.2-179.2-55.466666-59.733333-81.066667 81.066667zM947.2 341.333333h-426.666667c-25.6 0-42.666667 17.066667-42.666666 42.666667v426.666667c0 25.6 17.066667 42.666667 42.666666 42.666666h426.666667c25.6 0 42.666667-17.066667 42.666667-42.666666V384c0-25.6-17.066667-42.666667-42.666667-42.666667z m-42.666667 426.666667h-341.333333v-341.333333h341.333333v341.333333z"
        fill="#fff" p-id="1775"></path>
</svg>