<?xml version="1.0" standalone="no"?>
<!DOCTYPE svg PUBLIC "-//W3C//DTD SVG 1.1//EN" "http://www.w3.org/Graphics/SVG/1.1/DTD/svg11.dtd"><svg t="1700049568763"
    class="icon" viewBox="0 0 1024 1024" version="1.1" xmlns="http://www.w3.org/2000/svg" p-id="1620"
    xmlns:xlink="http://www.w3.org/1999/xlink" width="200" height="200">
    <path
        d="M930.133333 332.8L853.333333 413.866667V298.666667c0-119.466667-93.866667-213.333333-213.333333-213.333334h-170.666667v85.333334h170.666667c72.533333 0 128 55.466667 128 128v115.2l-76.8-76.8-59.733333 59.733333 179.2 179.2 179.2-179.2-59.733334-64zM554.666667 341.333333H128c-25.6 0-42.666667 17.066667-42.666667 42.666667v426.666667c0 25.6 17.066667 42.666667 42.666667 42.666666h426.666667c25.6 0 42.666667-17.066667 42.666666-42.666666V384c0-25.6-17.066667-42.666667-42.666666-42.666667z m-42.666667 426.666667H170.666667v-341.333333h341.333333v341.333333z"
        fill="#fff" p-id="1621"></path>
</svg>